<svg xmlns="http://www.w3.org/2000/svg" viewBox="0 0 18 14">
  <defs>
    <style>
      .cls-1 {
        fill: #413d4a;

      }
    </style>
  </defs>
  <path id="Path_150" data-name="Path 150" class="cls-1" d="M-122.328,6.223h0l-5.961-5.9a1.091,1.091,0,0,0-1.532,0,1.065,1.065,0,0,0,0,1.518l4.133,4.094H-138.9A1.078,1.078,0,0,0-139.988,7,1.078,1.078,0,0,0-138.9,8.076h13.216l-4.135,4.1a1.065,1.065,0,0,0,0,1.518,1.09,1.09,0,0,0,1.532,0l5.961-5.9h0A1.068,1.068,0,0,0-121.988,7,1.067,1.067,0,0,0-122.328,6.223Z" transform="translate(-121.988 14.004) rotate(180)"/>
</svg>
