<svg xmlns="http://www.w3.org/2000/svg" viewBox="0 0 72 71.8">
  <defs>
    <style>
      .cls-1 {
        opacity: 0.9;
      }

      .cls-2 {
        fill: #fed2a4;
      }

      .cls-3 {
        fill: #ffe781;
        stroke: #413d4a;
        stroke-width: 3.6px;
      }

      .cls-4 {
        fill: #39429b;
        stroke: #39429b;
        stroke-width: 0.3px;
        font-size: 12px;
        font-family: Nunito-SemiBold, Nunito;
        font-weight: 600;
      }

      .cls-5 {
        fill: #94e7ef;
      }

      .cls-6 {
        fill: #413d4a;
      }
    </style>
  </defs>
  <g id="Icons" class="cls-1" transform="translate(-0.501 -0.2)">
    <path id="Path_138" data-name="Path 138" class="cls-2" d="M139.945,224.036a4.212,4.212,0,0,0-5.921.5l-9.619,9.855h.01a4.3,4.3,0,0,0-4.127-3.084H104.357a16.866,16.866,0,0,0-6.754-1.4c-6.655,0-12.41,3.216-15.158,9.31l12.716,12.611.024-.019,2.19-2.106a5.631,5.631,0,0,1,3.905-1.573h18.742a11.222,11.222,0,0,0,7.814-3.164l12.607-15.024A4.179,4.179,0,0,0,139.945,224.036Zm0,0" transform="translate(-70.417 -191.566)"/>
    <path id="Path_139" data-name="Path 139" class="cls-3" d="M226.321,24.015A14.063,14.063,0,1,1,212.258,10,14.041,14.041,0,0,1,226.321,24.015Zm0,0" transform="translate(-169.794 -7.996)"/>
    <text id="_" data-name="₹" class="cls-4" transform="translate(38.751 20.731)"><tspan x="0" y="0">₹</tspan></text>
    <path id="Path_140" data-name="Path 140" class="cls-5" d="M32.847,352.022l-6.811,6.689L10.246,342.85l6.69-6.689a2.82,2.82,0,0,1,3.978,0l11.933,11.895A2.8,2.8,0,0,1,32.847,352.022Zm0,0" transform="translate(-8.374 -288.112)"/>
    <path id="Path_143" data-name="Path 143" class="cls-6" d="M16.7,253.927a1.409,1.409,0,0,0,1.985.011l6.818-6.7a4.227,4.227,0,0,0,1-4.35l1.467-1.41A4.2,4.2,0,0,1,30.9,240.3h18.7a12.612,12.612,0,0,0,8.828-3.575c.1-.095-.742.892,12.754-15.188a5.618,5.618,0,0,0-8.56-7.278l-8.3,8.5a5.658,5.658,0,0,0-4.372-2.087H34.263a18.193,18.193,0,0,0-7.042-1.4c-6.772,0-12.685,3.118-15.858,8.963A4.209,4.209,0,0,0,7.6,229.4L.911,236.09a1.4,1.4,0,0,0,0,1.977ZM27.22,222.079a15.394,15.394,0,0,1,6.191,1.284,1.407,1.407,0,0,0,.564.118h15.97a2.8,2.8,0,1,1,0,5.607H38.471a1.4,1.4,0,1,0,0,2.8H49.945a5.6,5.6,0,0,0,5.576-6.34c8.027-8.226,9.159-9.381,9.208-9.439a2.809,2.809,0,1,1,4.295,3.623L56.41,234.767a9.809,9.809,0,0,1-6.816,2.733H30.9a7,7,0,0,0-4.882,1.965l-1.2,1.15L13.8,229.633C16.379,224.818,21.21,222.079,27.22,222.079Zm-17.629,9.3a1.406,1.406,0,0,1,1.741-.2c.243.148-.456-.486,12.18,12.092a1.4,1.4,0,0,1,.008,1.976l-5.812,5.708L3.891,237.082Zm0,0" transform="translate(0 -182.342)"/>
  </g>
</svg>
