<svg xmlns="http://www.w3.org/2000/svg" viewBox="0 0 20 20">
    <defs>
        <style>
            .cls-1{fill:#fff}
        </style>
    </defs>
    <path id="Icon" d="M87.63 98.393a2.228 2.228 0 0 1 .4.2 15.938 15.938 0 0 1 2.948 3.744 2.079 2.079 0 0 1 .334 1.45c-.106.374-.281.571-1.064 1.2a5.849 5.849 0 0 0-.654.581 1.523 1.523 0 0 0-.215.742 5.489 5.489 0 0 0 .83 2.307 9.889 9.889 0 0 0 1.659 1.939 9.153 9.153 0 0 0 2.178 1.529c.968.479 1.56.6 1.993.4a1.608 1.608 0 0 0 .261-.144c.033-.03.287-.338.565-.679.535-.669.658-.778 1.024-.9a1.78 1.78 0 0 1 1.421.128c.364.187 1.157.676 1.669 1.03a24.574 24.574 0 0 1 2.31 1.87 1.484 1.484 0 0 1 .172 1.552 7.283 7.283 0 0 1-1.861 2.3 2.646 2.646 0 0 1-1.59.653 2.327 2.327 0 0 1-1.246-.259 26.2 26.2 0 0 1-11.286-8.63 24.405 24.405 0 0 1-3.506-6.333c-.466-1.276-.489-1.831-.106-2.484a7.345 7.345 0 0 1 1.381-1.339 4.786 4.786 0 0 1 1.56-.929 1.805 1.805 0 0 1 .826.076z" class="cls-1" transform="translate(-83.595 -98.298)"/>
</svg>
