<svg xmlns="http://www.w3.org/2000/svg" viewBox="0 0 55 72">
  <defs>
    <style>
      .cls-1 {
        opacity: 0.9;
      }

      .cls-2 {
        fill: #80615c;
      }

      .cls-2, .cls-3, .cls-4, .cls-5 {
        stroke: #413d4a;
        stroke-width: 2px;
      }

      .cls-3 {
        fill: #f8d4a6;
      }

      .cls-4 {
        fill: #9b8ccc;
      }

      .cls-5 {
        fill: #9082bc;
      }
    </style>
  </defs>
  <g id="icon" class="cls-1" transform="translate(1 1)">
    <path id="Path_78" data-name="Path 78" class="cls-2" d="M310.722,278.328c-24.673,0-21.938,29.941-21.825,51.639a2.316,2.316,0,0,0,1.138,1.981,41.721,41.721,0,0,0,41.374,0,2.316,2.316,0,0,0,1.138-1.981C332.659,308.27,335.4,278.328,310.722,278.328Z" transform="translate(-284.222 -278.328)"/>
    <path id="Path_82" data-name="Path 82" class="cls-3" d="M323.777,437.437l-13.909-5.783a3.111,3.111,0,0,1-1.919-2.872v-3.759H292.361v3.759a3.111,3.111,0,0,1-1.919,2.872l-13.909,5.783a4.666,4.666,0,0,0-2.878,4.308v6.222a3.115,3.115,0,0,0,3.118,3.111h46.764a3.115,3.115,0,0,0,3.118-3.111v-6.222A4.666,4.666,0,0,0,323.777,437.437Z" transform="translate(-273.655 -381.078)"/>
    <path id="Path_83" data-name="Path 83" class="cls-4" d="M323.778,453.394l-13.449-5.6-10.173,4.385L289.983,447.8l-13.449,5.6a4.671,4.671,0,0,0-2.878,4.311v6.228a3.116,3.116,0,0,0,3.118,3.114h46.764a3.116,3.116,0,0,0,3.118-3.114v-6.228A4.671,4.671,0,0,0,323.778,453.394Z" transform="translate(-273.656 -397.047)"/>
    <g id="Group_20" data-name="Group 20" transform="translate(14.03 48.222)">
      <path id="Path_87" data-name="Path 87" class="cls-5" d="M358.532,474.172h-.468a1.324,1.324,0,0,1-1.325-1.322V462.435h3.118v10.414A1.324,1.324,0,0,1,358.532,474.172Z" transform="translate(-345.827 -455.505)"/>
      <path id="Path_88" data-name="Path 88" class="cls-5" d="M332.861,446.228l-8.922-6.677a1.249,1.249,0,0,0-1.786.3l-1.763,2.639,5.47,7.642a1.249,1.249,0,0,0,1.794.249Z" transform="translate(-320.39 -439.301)"/>
      <path id="Path_89" data-name="Path 89" class="cls-5" d="M361.932,446.228l8.922-6.677a1.249,1.249,0,0,1,1.786.3l1.763,2.639-5.47,7.642a1.249,1.249,0,0,1-1.794.249Z" transform="translate(-349.461 -439.301)"/>
    </g>
    <path id="Path_90" data-name="Path 90" class="cls-3" d="M334.068,325.063c-7.794,7.778-23.09,1.556-23.09,14l.968,9.167a6.222,6.222,0,0,0,3.181,4.876l8.876,4.92a4.684,4.684,0,0,0,4.542,0l8.876-4.92a6.221,6.221,0,0,0,3.181-4.876l1.117-10.887a17.145,17.145,0,0,0,.07-2.329C341.206,331.054,335.627,328.174,334.068,325.063Z" transform="translate(-299.774 -311.063)"/>
  </g>
</svg>
