<svg xmlns="http://www.w3.org/2000/svg" viewBox="0 0 62 71">
  <defs>
    <style>
      .cls-1 {
        opacity: 0.9;
      }

      .cls-2 {
        fill: #e8c89f;
      }

      .cls-2, .cls-3, .cls-4, .cls-5, .cls-6, .cls-7, .cls-8 {
        stroke: #413d4a;
        stroke-width: 2px;
      }

      .cls-3, .cls-9 {
        fill: #96885a;
      }

      .cls-4 {
        fill: #fbd3a5;
      }

      .cls-10, .cls-5 {
        fill: #7b6f49;
      }

      .cls-6 {
        fill: #785550;
      }

      .cls-7 {
        fill: #e3c9a1;
      }

      .cls-8 {
        fill: #694b4b;
      }

      .cls-11 {
        fill: #413d4a;
      }
    </style>
  </defs>
  <g id="Icon" class="cls-1" transform="translate(-20.762 -124.163)">
    <path id="Path_61" data-name="Path 61" class="cls-2" d="M116.661,422.256v-8.038H95.746v8.038l10.458,9.186Z" transform="translate(-55.113 -245.864)"/>
    <path id="Path_62" data-name="Path 62" class="cls-3" d="M82.924,446.181l-14.278-3.4a2.27,2.27,0,0,1-.6-.244L56.483,449.36l-11.114-7.15a2.288,2.288,0,0,1-1.05.574l-14.278,3.4a4.657,4.657,0,0,0-3.558,4.542v9.136a2.321,2.321,0,0,0,2.308,2.333H84.175a2.321,2.321,0,0,0,2.308-2.333v-9.136A4.656,4.656,0,0,0,82.924,446.181Z" transform="translate(-4.721 -268.029)"/>
    <path id="Path_64" data-name="Path 64" class="cls-4" d="M79.449,320.508l1.013,22.014a6.867,6.867,0,0,0,2.781,5.2l4.8,3.561a7.026,7.026,0,0,0,4.183,1.378h4.648a7.027,7.027,0,0,0,4.183-1.378l4.8-3.561a6.866,6.866,0,0,0,2.782-5.2l1.012-22.014H79.449Z" transform="translate(-43.464 -180.316)"/>
    <g id="Group_19" data-name="Group 19" transform="translate(38.067 172.622)">
      <path id="Path_70" data-name="Path 70" class="cls-5" d="M86.535,432.887l9.626,8.561a36.367,36.367,0,0,0-6.023,4.055,1.359,1.359,0,0,1-2.092-.468L83.523,435.2l1.431-2.121A1.061,1.061,0,0,1,86.535,432.887Z" transform="translate(-83.523 -432.62)"/>
      <path id="Path_71" data-name="Path 71" class="cls-5" d="M142.041,432.887l-9.626,8.561a36.367,36.367,0,0,1,6.023,4.055,1.359,1.359,0,0,0,2.092-.468l4.523-9.833-1.431-2.121A1.061,1.061,0,0,0,142.041,432.887Z" transform="translate(-119.011 -432.62)"/>
    </g>
    <path id="Path_72" data-name="Path 72" class="cls-6" d="M157.115,291.7l1.089,7.608c4.973.983,5.689,8.694,5.792,10.9a2.249,2.249,0,0,0,.367,1.122l1.9,2.908s-1.785-4.746,1.189-7.975C167.45,306.259,169.606,287.107,157.115,291.7Z" transform="translate(-98.98 -157.364)"/>
    <path id="Path_73" data-name="Path 73" class="cls-7" d="M181.383,364.2l-1.312,5.187a1.394,1.394,0,0,1-1.356,1.046h0a1.391,1.391,0,0,1-1.386-1.209l-.671-5.305a2.387,2.387,0,0,1,2.387-2.672h0A2.384,2.384,0,0,1,181.383,364.2Z" transform="translate(-112.127 -209.576)"/>
    <path id="Path_74" data-name="Path 74" class="cls-8" d="M71.731,278.65l1.719,1.16c-7.77,5.67-4.987,15.215-4.987,15.215,2.324,2.3.993,8.218.993,8.218l2.324-2.3s-.9-6.634,3.486-9.186c4.067-2.368,7.626-1.148,11.256-1.148,9.731,0,12.455-3.624,11.983-8.038-.244-2.284-3.778-7.041-12.782-6.89C82.089,275.744,75.265,276.831,71.731,278.65Z" transform="translate(-34.595 -146.372)"/>
    <path id="Path_76" data-name="Path 76" class="cls-7" d="M71.373,364.2l1.312,5.187a1.394,1.394,0,0,0,1.356,1.046h0a1.391,1.391,0,0,0,1.386-1.209l.671-5.305a2.387,2.387,0,0,0-2.387-2.672h0A2.384,2.384,0,0,0,71.373,364.2Z" transform="translate(-38.409 -207.911)"/>
    <path id="Path_77" data-name="Path 77" class="cls-5" d="M160.673,503.851h-5.634a2.385,2.385,0,0,0-2.254,2.5h10.141A2.385,2.385,0,0,0,160.673,503.851Z" transform="translate(-92.995 -312.313)"/>
    <g id="Cap" transform="translate(28.889 124.163)">
      <ellipse id="Ellipse_13" data-name="Ellipse 13" class="cls-9" cx="20.224" cy="10.7" rx="20.224" ry="10.7" transform="translate(1.278 1.534)"/>
      <path id="Path_188" data-name="Path 188" class="cls-10" d="M14.894-.007c8.274,0,15-.237,15,1.38s-6.731,4.475-15,4.475S-.348,2.991-.348,1.374,6.62-.007,14.894-.007Z" transform="translate(6.609 17.823)"/>
      <path id="Path_187" data-name="Path 187" class="cls-11" d="M109.281,18.576h0c3.8-1.847,4.631-4,4.631-5.52,0-2.607-2.465-5.87-6.432-8.517a26.877,26.877,0,0,0-29.893,0c-3.968,2.646-6.432,5.909-6.432,8.517,0,1.519.827,3.673,4.631,5.52a26.094,26.094,0,0,0,3.254,3.2c4.236,2.959,9.124,3.6,13.564,3.422a30.008,30.008,0,0,0,12.141-2.83A11.216,11.216,0,0,0,109.281,18.576Zm-33.5-2.615c-1.5-.909-2.3-1.913-2.3-2.905,0-2.068,2.8-4.879,5.409-6.617a24.52,24.52,0,0,1,27.282,0c2.605,1.737,5.409,4.549,5.409,6.617,0,.993-.806,2-2.3,2.905V13.875a3.552,3.552,0,0,0-2.707-3.433A64.392,64.392,0,0,0,91.8,8.408H91.79a52.166,52.166,0,0,0-13.38,2.014,3.564,3.564,0,0,0-2.624,3.411v2.129Zm28.044,3.1h2.577l-.006.007-.06.062c-.042.043-.084.087-.13.13-.029.027-.059.054-.089.081s-.081.072-.124.108-.082.067-.125.1l-.109.084q-.081.061-.168.122l-.085.059c-.071.048-.143.1-.219.143l-.049.031a11.557,11.557,0,0,1-1.719.858c-.014.006-.026.014-.04.02a29.982,29.982,0,0,1-10.951,1.779,29.982,29.982,0,0,1-10.951-1.779c-.014-.006-.026-.014-.04-.02a11.558,11.558,0,0,1-1.719-.858l-.049-.031c-.075-.048-.148-.1-.219-.143l-.085-.059q-.087-.061-.168-.122l-.109-.084c-.043-.034-.085-.067-.125-.1s-.084-.072-.124-.108-.061-.054-.089-.081c-.046-.043-.088-.087-.13-.13l-.06-.062-.006-.007H105.7a1.147,1.147,0,1,0,0-2.294H78.115V13.833a1.256,1.256,0,0,1,.925-1.2A49.784,49.784,0,0,1,91.79,10.7H91.8A61.986,61.986,0,0,1,106,12.665a1.252,1.252,0,0,1,.954,1.21v2.891H103.83a1.147,1.147,0,1,0,0,2.294Z" transform="translate(-71.155)"/>
    </g>
  </g>
</svg>
