<svg xmlns="http://www.w3.org/2000/svg" viewBox="0 0 52 71">
  <defs>
    <style>
      .cls-1 {
        opacity: 0.9;
      }

      .cls-2 {
        fill: #94e7ef;
      }

      .cls-2, .cls-5 {
        stroke: #413d4a;
        stroke-width: 2px;
      }

      .cls-3 {
        fill: #413d4a;
      }

      .cls-4 {
        fill: #ffe781;
      }

      .cls-5 {
        fill: #9b8ccc;
      }

      .cls-6 {
        stroke: none;
      }

      .cls-7 {
        fill: none;
      }
    </style>
  </defs>
  <g id="Icon" class="cls-1" transform="translate(-77.601 -4)">
    <path id="Path_151" data-name="Path 151" class="cls-2" d="M115.6,60.746H83.1a5.056,5.056,0,0,0-5,5.082v54.628a5.056,5.056,0,0,0,5,5.082h40a5.056,5.056,0,0,0,5-5.082V65.828a5.056,5.056,0,0,0-5-5.082Z" transform="translate(0.5 -51.537)"/>
    <g id="Group_45" data-name="Group 45" transform="translate(85.601 25.724)">
      <path id="Path_152" data-name="Path 152" class="cls-3" d="M151.419,410.4h-20a1.271,1.271,0,0,1,0-2.541h20a1.271,1.271,0,0,1,0,2.541" transform="translate(-130.169 -373.563)"/>
      <path id="Path_153" data-name="Path 153" class="cls-3" d="M151.419,332.3h-20a1.271,1.271,0,0,1,0-2.541h20a1.271,1.271,0,0,1,0,2.541" transform="translate(-130.169 -306.895)"/>
      <path id="Path_154" data-name="Path 154" class="cls-3" d="M151.419,254.2h-20a1.271,1.271,0,0,1,0-2.541h20a1.271,1.271,0,0,1,0,2.541" transform="translate(-130.169 -240.227)"/>
      <path id="Path_155" data-name="Path 155" class="cls-3" d="M151.419,176.1h-20a1.271,1.271,0,0,1,0-2.541h20a1.271,1.271,0,0,1,0,2.541" transform="translate(-130.169 -173.559)"/>
    </g>
    <g id="Group_46" data-name="Group 46" transform="translate(111.851 21.945)">
      <path id="Path_156" data-name="Path 156" class="cls-4" d="M316.157,178.641a1.127,1.127,0,0,1-.875-.381l-2.5-2.541a1.242,1.242,0,0,1,0-1.779,1.2,1.2,0,0,1,1.75,0l2.5,2.541a1.242,1.242,0,0,1,0,1.779,1.126,1.126,0,0,1-.875.381" transform="translate(-312.407 -169.781)"/>
      <path id="Path_157" data-name="Path 157" class="cls-4" d="M331.2,156.607a1.757,1.757,0,0,1-.75-.254,1.382,1.382,0,0,1-.25-1.779l5-6.352a1.329,1.329,0,0,1,1.75-.254,1.382,1.382,0,0,1,.25,1.779l-5,6.352a1.131,1.131,0,0,1-1,.508" transform="translate(-327.453 -147.747)"/>
      <path id="Path_158" data-name="Path 158" class="cls-4" d="M316.157,256.743a1.127,1.127,0,0,1-.875-.381l-2.5-2.541a1.242,1.242,0,0,1,0-1.779,1.2,1.2,0,0,1,1.75,0l2.5,2.541a1.242,1.242,0,0,1,0,1.779,1.126,1.126,0,0,1-.875.381" transform="translate(-312.407 -236.449)"/>
      <path id="Path_159" data-name="Path 159" class="cls-4" d="M331.2,234.709a1.757,1.757,0,0,1-.75-.254,1.382,1.382,0,0,1-.25-1.779l5-6.352a1.329,1.329,0,0,1,1.75-.254,1.382,1.382,0,0,1,.25,1.779l-5,6.352a1.131,1.131,0,0,1-1,.508" transform="translate(-327.453 -214.415)"/>
      <path id="Path_160" data-name="Path 160" class="cls-4" d="M316.157,334.845a1.127,1.127,0,0,1-.875-.381l-2.5-2.541a1.242,1.242,0,0,1,0-1.779,1.2,1.2,0,0,1,1.75,0l2.5,2.541a1.242,1.242,0,0,1,0,1.779,1.126,1.126,0,0,1-.875.381" transform="translate(-312.407 -303.117)"/>
      <path id="Path_161" data-name="Path 161" class="cls-4" d="M331.2,312.811a1.757,1.757,0,0,1-.75-.254,1.382,1.382,0,0,1-.25-1.779l5-6.352a1.329,1.329,0,0,1,1.75-.254,1.382,1.382,0,0,1,.25,1.779l-5,6.352a1.131,1.131,0,0,1-1,.508" transform="translate(-327.453 -281.083)"/>
      <path id="Path_162" data-name="Path 162" class="cls-4" d="M316.157,412.946a1.127,1.127,0,0,1-.875-.381l-2.5-2.541a1.242,1.242,0,0,1,0-1.779,1.2,1.2,0,0,1,1.75,0l2.5,2.541a1.242,1.242,0,0,1,0,1.779,1.126,1.126,0,0,1-.875.381" transform="translate(-312.407 -369.785)"/>
      <path id="Path_163" data-name="Path 163" class="cls-4" d="M331.2,390.912a1.757,1.757,0,0,1-.75-.254,1.382,1.382,0,0,1-.25-1.779l5-6.352a1.329,1.329,0,0,1,1.75-.254,1.382,1.382,0,0,1,.25,1.779l-5,6.352a1.131,1.131,0,0,1-1,.508" transform="translate(-327.453 -347.75)"/>
    </g>
    <g id="Rectangle_91" data-name="Rectangle 91" class="cls-5" transform="translate(89.101 4)">
      <rect class="cls-6" width="28.182" height="11.053" rx="2"/>
      <rect class="cls-7" x="1" y="1" width="26.182" height="9.053" rx="1"/>
    </g>
  </g>
</svg>
